#!OML:ASF I:\Actors\actors\Patient Classification 1\Patient 1\Session 1\Subject1.ASF
:FULLY-SPECIFIED
:DEGREES
1781
root 1.3664 17.5313 8.77778 10.0857 5.17223 -2.72503
lowerback 7.85469 -1.43913 -3.01709
upperback -6.08152 -2.43303 -1.04795
thorax -10.8713 -0.989365 0.980146
lowerneck -8.6406 3.38737 3.35109
upperneck 16.0296 3.0266 6.57473
head 6.2559 2.18529 1.77823
rclavicle 1.13432e-014 1.19271e-014
rhumerus -57.0381 -20.5585 -61.0516
rradius 40.2073
rwrist 31.8542
rhand 181.302 142.247
rfingers 7.12502
rthumb 26.8371 -1145.87
lclavicle 1.13432e-014 1.19271e-014
lhumerus -35.9337 22.019 75.0127
lradius 18.9869
lwrist -40.8387
lhand -12.8926 -8.81873
lfingers 7.12502
lthumb 13.1967 20.7436
rfemur -25.9953 23.3765 15.5053
rtibia 47.8054
rfoot 1.45562 -22.4177
rtoes 7.38945
lfemur 4.94369 -41.5794 -20.6318
ltibia -4.37254
lfoot -11.1529 41.541
ltoes 0.284227
1782
root 1.35873 17.5275 8.75358 9.80851 5.1803 -2.5429
lowerback 8.20383 -1.53859 -3.2069
upperback -5.9461 -2.60514 -1.07103
thorax -10.9175 -1.05834 1.10018
lowerneck -8.86322 3.97417 4.73948
upperneck 16.5475 3.85764 4.86217
head 6.5149 2.551 1.09183
rclavicle 1.43622e-014 1.90833e-014
rhumerus -57.1278 -20.5673 -61.0191
rradius 40.147
rwrist 31.9039
rhand 181.338 142.408
rfingers 7.12502
rthumb 26.8716 -1145.7
lclavicle 1.43622e-014 1.90833e-014
lhumerus -35.6559 21.3339 75.5624
lradius 19.1555
lwrist -40.1367
lhand -12.8098 -8.80486
lfingers 7.12502
lthumb 13.2765 20.7523
rfemur -27.1428 22.2875 15.3197
rtibia 49.419
rfoot 4.00007 -21.8116
rtoes 8.88907
lfemur 5.30493 -41.6441 -21.0608
ltibia -4.41433
lfoot -11.0184 41.56
ltoes 0.0990268
1783
root 1.35287 17.5216 8.73262 9.43544 5.1282 -2.30809
lowerback 8.55668 -1.64531 -3.51747
upperback -5.81383 -2.80765 -1.12355
thorax -10.9638 -1.13396 1.26265
lowerneck -8.85594 4.43614 5.39837
upperneck 16.8586 4.46353 4.33149
head 6.64415 2.84855 0.874163
rclavicle -2.73329e-015 -1.59028e-015
rhumerus -57.3341 -20.4148 -61.1236
rradius 40.1603
rwrist 31.8543
rhand 181.396 142.427
rfingers 7.12502
rthumb 26.9271 -1145.67
lclavicle -2.73329e-015 -1.59028e-015
lhumerus -35.4864 20.9877 75.7833
lradius 19.1831
lwrist -39.7599
lhand -12.9738 -8.97282
lfingers 7.12502
lthumb 13.1184 20.5945
rfemur -28.009 21.0826 15.0892
rtibia 50.7028
rfoot 6.53756 -21.1229
rtoes 10.9933
lfemur 5.84609 -41.4672 -21.6794
ltibia -4.48184
lfoot -10.8286 41.4324
ltoes -0.218036
1784
root 1.34945 17.5162 8.71529 9.02761 5.07321 -2.04262
lowerback 8.93178 -1.67354 -3.77476
upperback -5.65714 -2.90241 -1.20933
thorax -11.0036 -1.16363 1.34215
lowerneck -8.89609 4.69421 5.23942
upperneck 16.9495 4.75652 4.78816
head 6.66641 3.02004 1.07325
rclavicle -1.95554e-014 -2.70347e-014
rhumerus -57.6404 -20.4083 -61.0783
rradius 40.1582
rwrist 31.8784
rhand 181.45 142.378
rfingers 7.12502
rthumb 26.9786 -1145.72
lclavicle -1.95554e-014 -2.70347e-014
lhumerus -35.2357 20.9287 75.9096
lradius 19.0613
lwrist -40.0233
lhand -13.2716 -9.00429
lfingers 7.12502
lthumb 12.8314 20.5813
rfemur -28.6879 19.7739 14.8055
rtibia 51.7332
rfoot 9.19753 -20.3063
rtoes 12.4945
lfemur 6.44221 -41.2014 -22.3909
ltibia -4.50195
lfoot -10.6685 41.2259
ltoes -0.484874
1785
root 1.34678 17.5131 8.69783 8.70077 5.02173 -1.91575
lowerback 9.25389 -1.64594 -3.89101
upperback -5.51214 -2.89496 -1.23165
thorax -11.0313 -1.15235 1.3915
lowerneck -9.09137 4.88546 4.92755
upperneck 17.101 4.93373 5.44349
head 6.72371 3.14615 1.35634
rclavicle -5.96354e-015 -1.98785e-014
rhumerus -57.9363 -20.5053 -60.8813
rradius 40.0856
rwrist 31.9809
rhand 181.441 142.329
rfingers 7.12502
rthumb 26.9696 -1145.77
lclavicle -5.96354e-015 -1.98785e-014
lhumerus -34.9573 20.8889 76.1367
lradius 18.9723
lwrist -40.4877
lhand -13.6008 -8.93041
lfingers 7.12502
lthumb 12.514 20.6749
rfemur -29.421 18.5297 14.5832
rtibia 52.6409
rfoot 11.8962 -19.3833
rtoes 13.6683
lfemur 6.88162 -41.0289 -22.8308
ltibia -4.51584
lfoot -10.5278 41.1273
ltoes -0.831654
1786
root 1.34604 17.5128 8.67971 8.49912 4.9429 -1.93088
lowerback 9.4227 -1.61276 -3.93067
upperback -5.40314 -2.85448 -1.17248
thorax -11.0072 -1.12859 1.47471
lowerneck -9.34111 5.11874 4.87004
upperneck 17.4081 5.15109 5.89028
head 6.85307 3.29581 1.5426
rclavicle 6.41081e-015 1.27222e-014
rhumerus -58.1932 -20.5332 -60.6657
rradius 39.9873
rwrist 32.1255
rhand 181.37 142.247
rfingers 7.12502
rthumb 26.9023 -1145.86
lclavicle 6.41081e-015 1.27222e-014
lhumerus -34.7272 20.8867 76.406
lradius 18.9758
lwrist -40.7926
lhand -13.7943 -8.91687
lfingers 7.12502
lthumb 12.3275 20.6997
rfemur -30.2743 17.3404 14.4017
rtibia 53.4414
rfoot 14.635 -18.2742
rtoes 14.9539
lfemur 7.11352 -40.9162 -22.9725
ltibia -4.54168
lfoot -10.4286 41.1333
ltoes -1.25593
